<?xml version="1.0" standalone="no"?>
<!DOCTYPE svg PUBLIC "-//W3C//DTD SVG 20010904//EN"
 "http://www.w3.org/TR/2001/REC-SVG-20010904/DTD/svg10.dtd">
<svg version="1.0" xmlns="http://www.w3.org/2000/svg"
 width="1024.000000pt" height="674.000000pt" viewBox="0 0 1024.000000 674.000000"
 preserveAspectRatio="xMidYMid meet">

<g transform="translate(0.000000,674.000000) scale(0.100000,-0.100000)"
fill="#000000" stroke="none">
<path d="M1415 6729 c-157 -26 -267 -105 -332 -237 -25 -51 -27 -68 -32 -216
l-6 -161 -165 -6 c-186 -8 -268 -26 -380 -85 -243 -128 -401 -347 -456 -634
-15 -76 -18 -301 -27 -2025 -11 -2007 -7 -2312 28 -2690 18 -185 41 -287 84
-374 79 -155 220 -224 516 -251 148 -14 581 -17 5150 -31 2772 -9 3651 -9
3720 0 401 52 615 294 680 771 14 98 18 351 26 1735 5 891 8 1895 6 2230 -3
583 -4 614 -24 705 -26 114 -41 156 -83 240 -112 221 -297 353 -565 399 -33 6
-158 12 -277 12 l-218 2 0 111 c0 61 -4 137 -10 169 -29 179 -158 307 -340
336 -81 13 -1355 14 -1455 1 -161 -21 -265 -92 -325 -222 -34 -72 -34 -76 -38
-236 l-4 -162 -1837 2 -1836 3 -6 150 c-6 158 -21 226 -64 295 -55 87 -169
152 -298 169 -94 13 -1357 13 -1432 0z m1470 -254 c75 -38 79 -56 85 -345 l5
-255 2075 0 2075 0 5 255 c6 260 10 289 48 323 50 46 75 47 794 47 458 0 693
-4 722 -11 27 -7 57 -24 77 -45 l34 -35 5 -267 5 -267 365 -5 c348 -5 368 -7
430 -29 217 -76 325 -222 371 -496 12 -79 12 -1092 -1 -3185 -9 -1333 -8
-1313 -60 -1500 -44 -155 -147 -291 -265 -349 -138 -68 217 -64 -4260 -52
-2227 6 -4171 13 -4320 16 -357 7 -521 30 -610 85 -90 56 -141 146 -169 302
-47 259 -52 566 -44 2618 4 1017 12 1897 17 1962 25 302 161 501 411 600 50
20 78 22 330 27 l275 6 5 255 c4 179 9 262 18 277 19 33 73 71 118 82 23 5
327 9 729 8 668 -2 691 -3 730 -22z"/>
<path d="M873 5359 c-80 -15 -141 -64 -162 -129 -14 -45 -33 -4068 -19 -4180
20 -169 73 -241 199 -269 49 -11 2062 -19 6034 -23 l2480 -3 50 25 c60 30 89
80 104 180 11 73 37 4169 26 4234 -9 60 -40 102 -93 128 l-47 23 -1215 6
c-1984 11 -7312 17 -7357 8z m2189 -409 c49 -14 93 -52 121 -104 21 -40 22
-50 22 -340 -1 -281 -2 -299 -20 -312 -15 -11 -94 -14 -421 -14 -387 0 -402
-1 -427 -20 -45 -36 -44 -124 1 -147 10 -4 201 -10 425 -13 390 -5 409 -6 423
-24 18 -26 21 -583 3 -637 -17 -51 -55 -97 -99 -119 -38 -19 -60 -20 -627 -20
-551 0 -591 2 -629 19 -22 10 -51 31 -63 47 -52 67 -51 45 -51 802 0 506 3
716 12 743 14 48 72 117 112 135 39 17 1158 20 1218 4z m806 -17 c9 -13 12
-122 12 -464 l0 -447 32 -27 c23 -20 38 -25 57 -20 54 13 57 27 64 288 4 132
7 322 7 421 0 163 2 184 20 214 11 18 32 37 46 42 14 6 138 10 277 10 276 0
282 -1 312 -60 13 -25 15 -136 15 -807 0 -749 -1 -780 -20 -821 -35 -78 -9
-75 -710 -67 -504 6 -619 9 -637 21 -43 27 -66 91 -71 194 -5 109 7 165 44
210 l26 30 232 0 c167 0 235 3 244 12 20 20 15 86 -7 98 -12 6 -108 10 -241
10 l-222 0 -34 34 -34 34 0 484 c1 265 5 502 9 526 9 47 50 98 85 106 11 3
125 3 251 0 200 -4 232 -7 243 -21z m2363 0 c18 -11 35 -34 46 -61 15 -40 16
-110 9 -819 -7 -847 -5 -816 -66 -848 -24 -12 -77 -15 -294 -15 l-265 0 -28
24 -28 24 -5 487 c-5 467 -6 487 -24 501 -26 19 -32 18 -56 -8 -19 -21 -20
-33 -20 -462 -1 -243 -5 -461 -9 -486 -16 -80 -16 -80 -318 -80 -225 0 -270 2
-299 16 -67 32 -64 -8 -64 847 0 426 3 789 6 806 4 17 19 45 34 61 l28 30 662
0 c607 0 664 -1 691 -17z m1469 2 c16 -8 34 -25 41 -36 15 -28 13 -487 -3
-506 -8 -10 -81 -13 -344 -13 l-334 0 -6 -26 c-11 -41 11 -52 119 -57 55 -3
101 -8 104 -11 12 -12 15 -105 8 -260 l-7 -166 -95 0 c-104 0 -133 -9 -133
-43 0 -46 6 -47 342 -47 305 0 319 -1 338 -20 19 -19 20 -33 20 -244 0 -230
-4 -260 -40 -296 -20 -20 -29 -20 -635 -20 -438 0 -621 3 -639 11 -14 7 -33
28 -42 47 -16 34 -16 95 -10 831 8 855 7 840 59 861 12 5 293 9 625 9 519 1
607 -1 632 -14z m1476 -12 c42 -42 43 -54 37 -583 -5 -444 -7 -507 -21 -517
-12 -10 -89 -13 -308 -13 -253 0 -295 -2 -308 -16 -14 -13 -16 -49 -16 -243 0
-260 -5 -312 -32 -340 -18 -20 -29 -21 -309 -21 -189 0 -297 4 -311 11 -48 26
-48 21 -41 879 l6 802 25 29 24 29 618 0 c570 0 620 -1 636 -17z m-7676 -13
c16 -16 20 -33 20 -83 0 -85 -13 -100 -87 -107 -57 -5 -58 -6 -58 -35 0 -29 1
-30 58 -35 74 -7 87 -22 87 -105 0 -107 4 -105 -236 -105 -122 0 -213 4 -225
10 -18 10 -19 23 -19 235 0 203 2 225 18 234 10 6 101 11 220 11 189 0 203 -1
222 -20z m8 -522 c17 -17 17 -619 0 -636 -9 -9 -75 -12 -235 -12 -210 0 -223
1 -233 19 -15 29 -13 156 3 169 8 7 68 13 142 14 92 2 130 7 133 16 3 9 -29
12 -136 12 -161 0 -152 -7 -152 105 0 104 1 105 161 105 79 0 129 4 129 10 0
6 -52 10 -135 10 -156 0 -155 -1 -155 100 0 105 -13 100 243 100 160 0 226 -3
235 -12z m-6 -705 c14 -12 18 -31 18 -84 0 -83 -12 -99 -79 -99 -52 0 -71 -12
-71 -46 0 -26 17 -34 75 -34 58 0 75 -24 75 -103 0 -102 11 -97 -235 -97 -117
0 -220 3 -229 6 -14 5 -16 35 -16 228 0 159 3 225 12 234 9 9 72 12 222 12
181 0 212 -2 228 -17z m-242 -596 c3 -48 9 -87 15 -87 6 0 12 39 15 87 l5 88
105 0 105 0 0 -190 0 -190 -230 0 -230 0 -3 170 c-1 94 0 180 3 193 5 22 9 23
108 20 l102 -3 5 -88z m2058 -220 c47 -26 89 -73 107 -121 13 -35 15 -85 13
-323 -2 -215 -6 -285 -16 -295 -10 -10 -119 -14 -496 -18 -453 -5 -485 -6
-504 -24 -43 -38 -33 -119 17 -146 13 -6 178 -10 464 -10 245 0 459 -3 476 -6
61 -13 65 -33 58 -345 -5 -221 -9 -285 -22 -315 -20 -49 -49 -80 -100 -107
-40 -22 -43 -22 -730 -22 -536 0 -698 3 -726 13 -20 7 -52 29 -72 48 -72 72
-68 23 -65 822 l3 719 30 49 c21 34 46 58 80 76 l50 28 700 -3 c651 -2 702 -3
733 -20z m940 -38 c50 -17 53 -43 45 -436 -4 -212 -3 -353 3 -353 5 0 53 87
106 193 185 364 299 582 311 589 7 5 159 7 339 6 l327 -3 30 -29 c17 -16 36
-45 42 -65 9 -26 11 -215 7 -737 -6 -775 -4 -748 -70 -796 -29 -20 -40 -21
-281 -19 -215 2 -254 4 -269 18 -17 15 -18 44 -18 364 0 258 -3 350 -12 355
-13 8 -53 -34 -181 -192 -186 -228 -394 -480 -423 -511 l-31 -33 -259 0 c-294
0 -310 3 -352 75 l-23 40 5 717 c5 762 4 747 52 789 11 9 33 21 49 27 41 14
562 15 603 1z m2285 -13 c18 -7 59 -43 92 -79 82 -90 173 -238 354 -577 77
-145 391 -779 413 -834 26 -67 21 -113 -15 -140 -27 -20 -42 -21 -299 -24
-294 -4 -339 3 -371 51 -12 18 -43 138 -139 530 -12 49 -40 77 -77 77 -46 0
-77 -36 -99 -115 -66 -234 -137 -454 -155 -482 -12 -18 -32 -37 -45 -42 -14
-7 -124 -11 -288 -11 -295 0 -321 5 -344 61 -25 60 -19 77 285 684 312 622
465 855 593 901 47 17 56 17 95 0z m2318 4 l257 0 32 -26 c69 -58 65 -12 61
-799 -4 -913 30 -828 -336 -833 -247 -3 -264 -1 -319 47 -33 29 -39 63 -45
234 l-6 169 -37 34 c-33 30 -44 34 -93 34 -49 0 -60 -4 -93 -34 l-37 -34 -5
-169 c-5 -155 -7 -171 -29 -207 -42 -68 -74 -76 -315 -76 -228 0 -270 7 -311
50 -53 56 -53 49 -48 789 5 738 5 741 57 790 13 12 36 26 52 31 18 6 214 8
493 5 255 -3 580 -5 722 -5z m-7353 -208 c18 -23 12 -140 -9 -153 -8 -5 -111
-8 -234 -6 l-220 2 -3 83 c-3 74 -1 83 17 90 11 4 113 6 228 4 182 -2 210 -5
221 -20z m-9 -206 c8 -9 11 -69 9 -192 l-3 -179 -213 -5 c-117 -3 -222 -2
-233 2 -18 7 -19 16 -17 100 l3 93 78 3 77 3 0 88 c0 48 3 91 7 94 3 4 68 7
143 7 105 0 140 -3 149 -14z m11 -435 c14 -28 13 -154 -2 -174 -7 -9 -49 -26
-93 -37 -44 -12 -81 -23 -84 -25 -14 -15 20 -37 92 -59 97 -30 97 -30 97 -142
0 -82 -11 -98 -75 -108 -141 -22 -150 -48 -31 -86 48 -16 84 -33 91 -45 7 -13
9 -47 6 -100 -5 -63 -9 -80 -23 -83 -9 -2 -85 31 -168 73 -230 115 -280 150
-280 196 0 32 36 60 160 128 l73 39 -54 27 c-187 95 -219 149 -127 211 53 35
378 203 395 204 7 0 17 -9 23 -19z"/>
<path d="M8474 4467 c-3 -8 -4 -52 -2 -98 l3 -84 65 0 65 0 6 80 c8 116 9 115
-67 115 -45 0 -66 -4 -70 -13z"/>
<path d="M1207 4712 c-21 -23 -21 -36 -1 -56 24 -25 68 -20 84 9 12 22 11 27
-5 45 -23 25 -57 26 -78 2z"/>
<path d="M1210 3490 c-11 -11 -20 -24 -20 -30 0 -14 38 -50 53 -50 20 0 57 30
57 46 0 18 -36 54 -55 54 -8 0 -24 -9 -35 -20z"/>
<path d="M1120 2979 c0 -15 5 -20 22 -17 34 5 37 38 4 38 -20 0 -26 -5 -26
-21z"/>
<path d="M1380 2980 c0 -15 7 -20 25 -20 18 0 25 5 25 20 0 15 -7 20 -25 20
-18 0 -25 -5 -25 -20z"/>
<path d="M8293 2261 c-123 -76 -103 -290 32 -341 72 -27 180 28 205 106 17 52
8 148 -17 182 -52 71 -151 95 -220 53z"/>
<path d="M1335 2230 c-9 -15 4 -30 26 -30 12 0 19 7 19 20 0 21 -33 29 -45 10z"/>
</g>
</svg>
