<svg width="101" height="67" viewBox="0 0 101 67" fill="none" xmlns="http://www.w3.org/2000/svg">
<path d="M13.9962 0.719483C12.4594 0.974574 11.3826 1.74966 10.7464 3.04473C10.5017 3.5451 10.4821 3.7119 10.4331 5.16395L10.3744 6.74355L8.7593 6.80242C6.93864 6.88091 6.13598 7.05751 5.03967 7.63637C2.66106 8.8922 1.11447 11.0409 0.576107 13.8567C0.429279 14.6023 0.399914 16.8098 0.311817 33.7243C0.204143 53.4154 0.243297 56.4078 0.585895 60.1164C0.762089 61.9315 0.987224 62.9322 1.40813 63.7858C2.18142 65.3065 3.5616 65.9835 6.459 66.2484C7.9077 66.3858 12.1461 66.4152 56.8698 66.5525C84.0036 66.6408 92.6077 66.6408 93.2831 66.5525C97.2083 66.0424 99.303 63.6681 99.9393 58.9881C100.076 58.0266 100.115 55.5444 100.194 41.9657C100.243 33.2239 100.272 23.3735 100.253 20.0868C100.223 14.3668 100.213 14.0627 100.018 13.1699C99.7631 12.0514 99.6163 11.6393 99.2052 10.8152C98.1088 8.64692 96.298 7.35185 93.6746 6.90053C93.3516 6.84166 92.1281 6.7828 90.9632 6.7828L88.8293 6.76317V5.67413C88.8293 5.07565 88.7902 4.33 88.7314 4.01604C88.4476 2.25984 87.1849 1.00401 85.4034 0.719483C84.6105 0.591938 72.1399 0.582126 71.1611 0.709672C69.5851 0.915707 68.5671 1.6123 67.9798 2.88776C67.647 3.59416 67.647 3.63341 67.6078 5.2032L67.5687 6.79261L49.5872 6.77299L31.6155 6.74355L31.5567 5.27187C31.498 3.72171 31.3512 3.05455 30.9303 2.37757C30.3919 1.524 29.276 0.886273 28.0133 0.719483C27.0932 0.591938 14.7303 0.591938 13.9962 0.719483ZM28.3853 3.21152C29.1194 3.58435 29.1586 3.76095 29.2173 6.59638L29.2662 9.09824H49.5774H69.8886L69.9375 6.59638C69.9962 4.04548 70.0354 3.76095 70.4074 3.42737C70.8968 2.97606 71.1415 2.96624 78.1794 2.96624C82.6626 2.96624 84.9629 3.00549 85.2467 3.07417C85.511 3.14285 85.8047 3.30964 86.0005 3.51567L86.3333 3.85906L86.3822 6.47865L86.4311 9.09824L90.004 9.14729C93.4104 9.19635 93.6061 9.21597 94.213 9.43182C96.3371 10.1775 97.3943 11.6099 97.8446 14.2982C97.962 15.0732 97.962 25.012 97.8348 45.5468C97.7467 58.6251 97.7565 58.4289 97.2475 60.2636C96.8168 61.7843 95.8085 63.1186 94.6535 63.6877C93.3027 64.3548 96.7776 64.3156 52.9544 64.1979C31.1554 64.139 12.1266 64.0703 10.6681 64.0409C7.17356 63.9722 5.56825 63.7465 4.69707 63.2069C3.8161 62.6575 3.31689 61.7745 3.04281 60.244C2.58275 57.7029 2.53381 54.6908 2.61212 34.5583C2.65127 24.5803 2.72958 15.9464 2.77852 15.3087C3.02323 12.3457 4.35447 10.3933 6.8016 9.42201C7.29103 9.22578 7.5651 9.20616 10.0318 9.1571L12.7237 9.09824L12.7726 6.59638C12.8117 4.84018 12.8607 4.02585 12.9488 3.87869C13.1348 3.55492 13.6633 3.18209 14.1038 3.07417C14.329 3.02511 17.3047 2.98587 21.2397 2.99568C27.7784 3.0153 28.0035 3.02511 28.3853 3.21152Z" fill="#921111"/>
<path d="M8.69078 14.1608C7.9077 14.308 7.3106 14.7887 7.10504 15.4265C6.96801 15.868 6.78202 55.3384 6.91906 56.4372C7.11483 58.0953 7.63362 58.8017 8.86698 59.0764C9.34661 59.1843 29.0509 59.2628 67.9309 59.3021L92.2064 59.3315L92.6958 59.0862C93.2831 58.7919 93.567 58.3013 93.7138 57.3202C93.8215 56.604 94.076 16.4174 93.9683 15.7797C93.8802 15.191 93.5768 14.7789 93.058 14.5238L92.5979 14.2982L80.7049 14.2393C61.2845 14.1314 9.13127 14.0725 8.69078 14.1608ZM30.1178 18.1736C30.5975 18.3109 31.0282 18.6838 31.3022 19.1939C31.5078 19.5864 31.5176 19.6845 31.5176 22.5298C31.5078 25.2867 31.498 25.4633 31.3218 25.5908C31.175 25.6988 30.4017 25.7282 27.2009 25.7282C23.4127 25.7282 23.2659 25.738 23.0212 25.9244C22.5807 26.2776 22.5905 27.141 23.031 27.3667C23.1288 27.4059 24.9984 27.4648 27.1911 27.4942C31.0086 27.5433 31.1946 27.5531 31.3316 27.7297C31.5078 27.9848 31.5372 33.4496 31.361 33.9794C31.1946 34.4798 30.8226 34.9311 30.3919 35.1469C30.02 35.3334 29.8046 35.3432 24.2545 35.3432C18.861 35.3432 18.4695 35.3235 18.0975 35.1567C17.8822 35.0586 17.5983 34.8526 17.4809 34.6956C16.9719 34.0383 16.9817 34.2541 16.9817 26.8271C16.9817 21.8626 17.011 19.8022 17.0991 19.5373C17.2362 19.0664 17.8039 18.3894 18.1954 18.2128C18.5772 18.046 29.5305 18.0166 30.1178 18.1736ZM38.0074 18.3404C38.0955 18.4679 38.1248 19.5373 38.1248 22.8928V27.2784L38.4381 27.5433C38.6632 27.7395 38.81 27.7885 38.996 27.7395C39.5246 27.6119 39.554 27.4746 39.6225 24.9139C39.6616 23.6188 39.691 21.7547 39.691 20.7834C39.691 19.1841 39.7106 18.9781 39.8868 18.6838C39.9944 18.5072 40.2 18.3208 40.337 18.2717C40.4741 18.2128 41.6879 18.1736 43.0485 18.1736C45.7501 18.1736 45.8088 18.1834 46.1025 18.7623C46.2297 19.0075 46.2493 20.0966 46.2493 26.6799C46.2493 34.0285 46.2395 34.3326 46.0535 34.7349C45.7109 35.5001 45.9654 35.4707 39.1037 35.3922C34.1703 35.3334 33.0446 35.3039 32.8684 35.1862C32.4475 34.9213 32.2224 34.2934 32.1734 33.2828C32.1245 32.2134 32.2419 31.664 32.6041 31.2225L32.8586 30.9281H35.1296C36.7642 30.9281 37.4299 30.8987 37.518 30.8104C37.7137 30.6142 37.6648 29.9666 37.4494 29.8489C37.332 29.79 36.3923 29.7508 35.0904 29.7508H32.9174L32.5845 29.4172L32.2517 29.0836V24.335C32.2615 21.735 32.3007 19.4098 32.3398 19.1743C32.4279 18.7132 32.8293 18.2128 33.1719 18.1343C33.2795 18.1049 34.3954 18.1049 35.6288 18.1343C37.5865 18.1736 37.8997 18.203 38.0074 18.3404ZM61.1376 18.3404C61.3138 18.4483 61.4802 18.674 61.5879 18.9389C61.7347 19.3313 61.7445 20.0181 61.676 26.9742C61.6075 35.2843 61.6271 34.9801 61.03 35.2941C60.795 35.4118 60.2762 35.4413 58.1521 35.4413H55.5582L55.2841 35.2058L55.01 34.9703L54.9611 30.1923C54.9121 25.6105 54.9024 25.4142 54.7262 25.2769C54.4717 25.0905 54.4129 25.1003 54.178 25.3554C53.992 25.5614 53.9822 25.6791 53.9822 29.8881C53.9724 32.2723 53.9333 34.4111 53.8941 34.6564C53.7375 35.4413 53.7375 35.4413 50.7814 35.4413C48.579 35.4413 48.1385 35.4217 47.8546 35.2843C47.1988 34.9703 47.2282 35.3628 47.2282 26.9742C47.2282 22.7947 47.2575 19.2332 47.2869 19.0664C47.326 18.8996 47.4729 18.6249 47.6197 18.4679L47.8938 18.1736H54.3738C60.3154 18.1736 60.8733 18.1834 61.1376 18.3404ZM75.517 18.3208C75.6736 18.3992 75.8498 18.566 75.9183 18.674C76.0651 18.9487 76.0455 23.452 75.8889 23.6384C75.8106 23.7365 75.0961 23.766 72.5217 23.766H69.2523L69.1936 24.0211C69.0859 24.4233 69.3013 24.5312 70.3584 24.5803C70.8968 24.6097 71.3471 24.6588 71.3764 24.6882C71.4939 24.8059 71.5232 25.7184 71.4547 27.2391L71.3862 28.8678H70.4563C69.4383 28.8678 69.1544 28.9561 69.1544 29.2897C69.1544 29.741 69.2132 29.7508 72.5021 29.7508C75.4876 29.7508 75.6246 29.7606 75.8106 29.947C75.9966 30.1334 76.0064 30.2708 76.0064 32.3409C76.0064 34.5975 75.9672 34.8918 75.6148 35.2451C75.4191 35.4413 75.331 35.4413 69.3991 35.4413C65.1118 35.4413 63.3205 35.4118 63.1443 35.3334C63.0072 35.2647 62.8213 35.0586 62.7332 34.8722C62.5765 34.5386 62.5765 33.9402 62.6353 26.7191C62.7136 18.3306 62.7038 18.4777 63.2128 18.2717C63.3303 18.2226 66.0808 18.1834 69.3306 18.1834C74.4109 18.1736 75.2722 18.1932 75.517 18.3208ZM89.9648 18.4385C90.3759 18.8506 90.3857 18.9683 90.327 24.1584C90.278 28.5146 90.2585 29.1327 90.1214 29.2308C90.004 29.3289 89.2503 29.3583 87.1066 29.3583C84.6301 29.3583 84.219 29.378 84.0917 29.5153C83.9547 29.6429 83.9351 29.9961 83.9351 31.8994C83.9351 34.4503 83.8861 34.9605 83.6219 35.2352C83.4457 35.4315 83.338 35.4413 80.5972 35.4413C78.7472 35.4413 77.69 35.402 77.553 35.3334C77.0831 35.0783 77.0831 35.1273 77.1516 26.7093L77.2104 18.8407L77.4551 18.5562L77.69 18.2717H83.7393C89.3188 18.2717 89.8082 18.2815 89.9648 18.4385ZM14.8282 18.566C14.9848 18.723 15.024 18.8898 15.024 19.3804C15.024 20.2143 14.8967 20.3615 14.1724 20.4302C13.6144 20.4792 13.6046 20.489 13.6046 20.7736C13.6046 21.0581 13.6144 21.0679 14.1724 21.1169C14.8967 21.1856 15.024 21.3328 15.024 22.1471C15.024 23.1969 15.0631 23.1773 12.7139 23.1773C11.5197 23.1773 10.6289 23.138 10.5114 23.0792C10.3353 22.9811 10.3255 22.8535 10.3255 20.7736C10.3255 18.7819 10.345 18.566 10.5017 18.4777C10.5995 18.4189 11.4903 18.3698 12.6551 18.3698C14.5052 18.3698 14.6422 18.3796 14.8282 18.566ZM14.9065 23.6875C15.0729 23.8543 15.0729 29.7606 14.9065 29.9274C14.8184 30.0157 14.1724 30.0451 12.6062 30.0451C10.5506 30.0451 10.4234 30.0353 10.3255 29.8587C10.1786 29.5742 10.1982 28.3282 10.3548 28.2006C10.4331 28.1319 11.0204 28.0731 11.7448 28.0633C12.6453 28.0436 13.0173 27.9946 13.0467 27.9063C13.076 27.818 12.7628 27.7885 11.7154 27.7885C10.1395 27.7885 10.2276 27.8572 10.2276 26.7584C10.2276 25.738 10.2374 25.7282 11.8035 25.7282C12.5768 25.7282 13.0662 25.689 13.0662 25.6301C13.0662 25.5712 12.5572 25.532 11.7448 25.532C10.2178 25.532 10.2276 25.5418 10.2276 24.5509C10.2276 23.5207 10.1003 23.5697 12.6062 23.5697C14.1724 23.5697 14.8184 23.5992 14.9065 23.6875ZM14.8478 30.6044C14.9848 30.7221 15.024 30.9085 15.024 31.4285C15.024 32.2428 14.9065 32.3998 14.2507 32.3998C13.7417 32.3998 13.5557 32.5175 13.5557 32.8511C13.5557 33.1062 13.7221 33.1847 14.2898 33.1847C14.8575 33.1847 15.024 33.4202 15.024 34.1953C15.024 35.196 15.1316 35.1469 12.7237 35.1469C11.5784 35.1469 10.5702 35.1175 10.4821 35.0881C10.345 35.039 10.3255 34.7447 10.3255 32.8511C10.3255 31.2911 10.3548 30.6436 10.4429 30.5553C10.531 30.467 11.1477 30.4376 12.616 30.4376C14.3877 30.4376 14.6911 30.4572 14.8478 30.6044ZM12.4789 36.4518C12.5083 36.9228 12.567 37.3054 12.6258 37.3054C12.6845 37.3054 12.7432 36.9228 12.7726 36.4518L12.8215 35.5884H13.8493H14.8771V37.4526V39.3167H12.6258H10.3744L10.345 37.6488C10.3353 36.7265 10.345 35.8828 10.3744 35.7552C10.4234 35.5394 10.4625 35.5296 11.4316 35.559L12.43 35.5884L12.4789 36.4518ZM32.6237 38.6103C33.0838 38.8654 33.4949 39.3265 33.6711 39.7974C33.7983 40.1408 33.8179 40.6314 33.7983 42.9665C33.7787 45.0759 33.7396 45.7626 33.6417 45.8608C33.5438 45.9589 32.4769 45.9981 28.7866 46.0374C24.3524 46.0864 24.0392 46.0962 23.8532 46.2728C23.4323 46.6456 23.5302 47.4404 24.0196 47.7053C24.1468 47.7641 25.762 47.8034 28.5615 47.8034C30.9597 47.8034 33.0544 47.8328 33.2208 47.8622C33.8179 47.9898 33.8571 48.186 33.7885 51.2471C33.7396 53.4154 33.7004 54.0433 33.5732 54.3376C33.3774 54.8184 33.0935 55.1225 32.5943 55.3874C32.2028 55.6033 32.1734 55.6033 25.4487 55.6033C20.2021 55.6033 18.6163 55.5738 18.3423 55.4757C18.1465 55.407 17.8333 55.1912 17.6375 55.0048C16.9327 54.2984 16.9719 54.7791 17.0012 46.94L17.0306 39.8857L17.3243 39.405C17.5298 39.0714 17.7745 38.8359 18.1073 38.6593L18.5968 38.3846L25.4487 38.4141C31.821 38.4337 32.3203 38.4435 32.6237 38.6103ZM41.8249 38.9831C42.3143 39.1499 42.3437 39.405 42.2654 43.2608C42.2262 45.3408 42.236 46.7241 42.2947 46.7241C42.3437 46.7241 42.8135 45.8706 43.3323 44.8306C45.1432 41.2593 46.2591 39.1205 46.3766 39.0518C46.4451 39.0027 47.9329 38.9831 49.6949 38.9929L52.8957 39.0224L53.1894 39.3069C53.3558 39.4639 53.5418 39.7484 53.6005 39.9446C53.6886 40.1997 53.7082 42.054 53.669 47.1755C53.6103 54.7791 53.6298 54.5142 52.9838 54.9852C52.6999 55.1814 52.5923 55.1912 50.2332 55.1716C48.1287 55.1519 47.747 55.1323 47.6001 54.995C47.4337 54.8478 47.4239 54.5633 47.4239 51.4237C47.4239 48.8924 47.3946 47.9898 47.3065 47.9407C47.1792 47.8622 46.7877 48.2743 45.5347 49.8245C43.7141 52.0614 41.6781 54.5338 41.3942 54.838L41.0908 55.1618H38.5555C35.6777 55.1618 35.5211 55.1323 35.11 54.4259L34.8848 54.0335L34.9338 46.9989C34.9827 39.5227 34.9729 39.6699 35.4428 39.2578C35.5505 39.1695 35.7658 39.0518 35.9224 38.9929C36.3238 38.8556 41.4236 38.8458 41.8249 38.9831ZM64.1917 39.1107C64.3678 39.1793 64.7692 39.5325 65.0922 39.8857C65.8949 40.7687 66.7856 42.2208 68.5573 45.5468C69.311 46.9694 72.3846 53.1897 72.6 53.7293C72.8545 54.3867 72.8055 54.838 72.4532 55.1029C72.1889 55.2991 72.042 55.3089 69.5264 55.3384C66.6486 55.3776 66.2081 55.3089 65.8949 54.838C65.7774 54.6614 65.4739 53.484 64.5343 49.6381C64.4168 49.1573 64.1427 48.8826 63.7805 48.8826C63.3303 48.8826 63.0268 49.2358 62.8115 50.0109C62.1654 52.3067 61.4704 54.4652 61.2943 54.7399C61.1768 54.9165 60.981 55.1029 60.8538 55.1519C60.7167 55.2206 59.64 55.2599 58.0347 55.2599C55.1471 55.2599 54.8926 55.2108 54.6674 54.6614C54.4227 54.0727 54.4814 53.9059 57.4572 47.9505C60.5112 41.848 62.0088 39.562 63.2617 39.1107C63.7218 38.9439 63.8099 38.9439 64.1917 39.1107ZM86.8814 39.0714H89.3971L89.7103 39.3265C90.3857 39.8956 90.3466 39.4442 90.3074 47.1656C90.2683 56.1233 90.6011 55.2893 87.0185 55.3384C84.6007 55.3678 84.4343 55.3482 83.8959 54.8772C83.5729 54.5927 83.5142 54.2591 83.4554 52.5814L83.3967 50.9233L83.0345 50.5897C82.7115 50.2954 82.6038 50.2562 82.1242 50.2562C81.6446 50.2562 81.5369 50.2954 81.2139 50.5897L80.8517 50.9233L80.8028 52.5814C80.7538 54.1022 80.7342 54.2591 80.5189 54.6123C80.1078 55.2795 79.7945 55.358 77.4355 55.358C75.2037 55.358 74.7926 55.2893 74.3913 54.8674C73.8725 54.318 73.8725 54.3867 73.9214 47.1264C73.9704 39.8857 73.9704 39.8563 74.4794 39.3756C74.6066 39.2578 74.8318 39.1205 74.9884 39.0714C75.1646 39.0125 77.0831 38.9929 79.8141 39.0224C82.3102 39.0518 85.4915 39.0714 86.8814 39.0714ZM14.9065 41.1121C15.0827 41.3378 15.024 42.4857 14.8184 42.6133C14.7401 42.6623 13.7319 42.6917 12.5279 42.6721L10.3744 42.6525L10.345 41.8382C10.3157 41.1121 10.3353 41.0238 10.5114 40.9552C10.6191 40.9159 11.6175 40.8963 12.7432 40.9159C14.5247 40.9355 14.7988 40.965 14.9065 41.1121ZM14.8184 43.1332C14.8967 43.2215 14.9261 43.8102 14.9065 45.017L14.8771 46.7732L12.7922 46.8223C11.6469 46.8517 10.6191 46.8419 10.5114 46.8026C10.3353 46.7339 10.3255 46.6456 10.345 45.8215L10.3744 44.9091L11.1379 44.8796L11.8916 44.8502V43.9868C11.8916 43.5159 11.921 43.094 11.9601 43.0646C11.9895 43.0253 12.6258 42.9959 13.3599 42.9959C14.3877 42.9959 14.7303 43.0253 14.8184 43.1332ZM14.9261 47.4011C15.0631 47.6758 15.0533 48.912 14.9065 49.1083C14.838 49.1966 14.4269 49.3633 13.9962 49.4713C13.5655 49.589 13.2033 49.6969 13.1739 49.7165C13.0369 49.8637 13.3697 50.0796 14.0745 50.2954C15.024 50.5897 15.024 50.5897 15.024 51.6886C15.024 52.4931 14.9163 52.6501 14.2898 52.7482C12.9096 52.9641 12.8215 53.2191 13.9864 53.592C14.4562 53.7489 14.8086 53.9157 14.8771 54.0335C14.9456 54.161 14.9652 54.4946 14.9359 55.0146C14.8869 55.6327 14.8478 55.7995 14.7107 55.8289C14.6226 55.8485 13.8787 55.5248 13.0662 55.1127C10.8149 53.9844 10.3255 53.641 10.3255 53.1897C10.3255 52.8758 10.6779 52.601 11.8916 51.9339L12.6062 51.5512L12.0776 51.2863C10.2472 50.3543 9.93392 49.8245 10.8345 49.2162C11.3533 48.8728 14.5345 47.2245 14.7009 47.2147C14.7694 47.2147 14.8673 47.303 14.9261 47.4011Z" fill="#921111"/>
<path d="M83.0933 22.9124C83.0639 22.9909 83.0541 23.4226 83.0737 23.8739L83.1031 24.698H83.7393H84.3756L84.4343 23.9131C84.5126 22.775 84.5224 22.7848 83.7785 22.7848C83.338 22.7848 83.1324 22.8241 83.0933 22.9124Z" fill="#921111"/>
<path d="M11.9602 20.5086C11.7546 20.7343 11.7546 20.8618 11.9504 21.0581C12.1853 21.3033 12.616 21.2543 12.7726 20.9698C12.8901 20.7539 12.8803 20.7049 12.7237 20.5283C12.4985 20.283 12.1657 20.2732 11.9602 20.5086Z" fill="#921111"/>
<path d="M11.9895 32.4979C11.8819 32.6058 11.7938 32.7334 11.7938 32.7922C11.7938 32.9296 12.1657 33.2828 12.3126 33.2828C12.5083 33.2828 12.8705 32.9885 12.8705 32.8315C12.8705 32.6549 12.5181 32.3017 12.3321 32.3017C12.2538 32.3017 12.0972 32.39 11.9895 32.4979Z" fill="#921111"/>
<path d="M11.1085 37.5114C11.1085 37.6586 11.1575 37.7077 11.3239 37.6782C11.6567 37.6292 11.686 37.3054 11.363 37.3054C11.1673 37.3054 11.1085 37.3544 11.1085 37.5114Z" fill="#921111"/>
<path d="M13.6536 37.5016C13.6536 37.6488 13.7221 37.6978 13.8983 37.6978C14.0745 37.6978 14.143 37.6488 14.143 37.5016C14.143 37.3545 14.0745 37.3054 13.8983 37.3054C13.7221 37.3054 13.6536 37.3545 13.6536 37.5016Z" fill="#921111"/>
<path d="M81.3216 44.5559C80.1176 45.3015 80.3133 47.4011 81.6348 47.9015C82.3396 48.1664 83.3967 47.6268 83.6414 46.8615C83.8078 46.3513 83.7197 45.4094 83.475 45.0759C82.966 44.3793 81.997 44.1438 81.3216 44.5559Z" fill="#921111"/>
<path d="M13.213 44.86C13.1249 45.0072 13.2522 45.1543 13.4675 45.1543C13.585 45.1543 13.6535 45.0857 13.6535 44.9581C13.6535 44.7521 13.3305 44.6736 13.213 44.86Z" fill="#921111"/>
</svg>
